<?xml version="1.0"?>
<svg width="30" height="30" xmlns="http://www.w3.org/2000/svg">

 <g>
  <title>background</title>
  <rect fill="none" id="canvas_background" height="402" width="582" y="-1" x="-1"/>
 </g>
 <g>
  <title>Layer 1</title>
  <path fill="#ffffff" id="svg_1" d="m20.618999,18.457001c-0.081001,0.080999 -0.163,0.162001 -0.244001,0.241001c-0.546999,0.539 -1.054998,1.043999 -1.463999,1.523998c4.612001,0.542999 7.089001,1.966 7.089001,2.778c0,1.018999 -3.882999,3 -11,3s-11,-1.981001 -11,-3c0,-0.812 2.477,-2.235001 7.089,-2.778c-0.41,-0.48 -0.917999,-0.985001 -1.464,-1.524c-0.08,-0.079 -0.162,-0.16 -0.244,-0.240999c-4.155,0.709999 -7.381,2.238998 -7.381,4.542999c0,3.282 6.54,5 13,5s13,-1.718 13,-5c0,-2.304001 -3.226,-3.833 -7.381001,-4.542999z"/>
  <path fill="#ffffff" id="svg_2" d="m15,2c-4.418,0 -8,3.582 -8,8c0,6 7,8 7,12c0,0.552 0.448,1 1,1s1,-0.448 1,-1c0,-4 7,-6 7,-12c0,-4.418 -3.582001,-8 -8,-8zm0,10c-1.105,0 -2,-0.895 -2,-2c0,-1.105 0.895,-2 2,-2s2,0.895 2,2c0,1.105 -0.895,2 -2,2z"/>
 </g>
</svg>